<svg width="20" height="20" viewBox="0 0 20 20" fill="none" xmlns="http://www.w3.org/2000/svg">
<g clip-path="url(#clip0_395_307)">
<path d="M0 19.1667L19.1667 7.02447e-07L20 0.833334L0.833333 20L0 19.1667Z" fill="#40E82B"/>
<path d="M0 0.833333L19.1667 20L20 19.1667L0.833333 0L0 0.833333Z" fill="#40E82B"/>
<path d="M3 2H17V14.1429H3V2Z" fill="#40E82B"/>
<path d="M7.2 14.1429H12.8V19H7.2V14.1429Z" fill="#40E82B"/>
<path d="M5.8 4.42857H8.6V9.28571H5.8V4.42857Z" fill="black"/>
<path d="M11.4 4.42857H14.2V9.28571H11.4V4.42857Z" fill="black"/>
<path d="M8.6 14.1429H9.3V19H8.6V14.1429Z" fill="black"/>
<path d="M10.7 14.1429H11.4V19H10.7V14.1429Z" fill="black"/>
</g>
<defs>
<clipPath id="clip0_395_307">
<rect width="20" height="20" fill="white"/>
</clipPath>
</defs>
</svg>
