<svg width="20" height="20" viewBox="0 0 20 20" fill="none" xmlns="http://www.w3.org/2000/svg">
<g clip-path="url(#clip0_392_273)">
<path d="M10 0L12.2451 6.90983H19.5106L13.6327 11.1803L15.8779 18.0902L10 13.8197L4.12215 18.0902L6.36729 11.1803L0.489435 6.90983H7.75486L10 0Z" fill="#E6FF00"/>
<mask id="path-2-inside-1_392_273" fill="white">
<path d="M7.37697 9.59099C7.86513 10.0791 8.57744 10.1583 8.96796 9.76777L7.2002 8C6.80967 8.39052 6.88882 9.10283 7.37697 9.59099Z"/>
</mask>
<path d="M8.96796 9.76777L9.67507 10.4749L10.3822 9.76777L9.67507 9.06066L8.96796 9.76777ZM7.2002 8L7.9073 7.29289L7.2002 6.58579L6.49309 7.29289L7.2002 8ZM8.26086 9.06066C8.31888 9.00264 8.36407 9.01995 8.31951 9.015C8.27261 9.00979 8.17885 8.97866 8.08408 8.88388L6.66987 10.2981C7.39315 11.0214 8.75493 11.395 9.67507 10.4749L8.26086 9.06066ZM8.08408 8.88388C7.98931 8.78911 7.95817 8.69535 7.95296 8.64845C7.94801 8.60389 7.96532 8.64908 7.9073 8.70711L6.49309 7.29289C5.57295 8.21303 5.94658 9.57481 6.66987 10.2981L8.08408 8.88388ZM6.49309 8.70711L8.26086 10.4749L9.67507 9.06066L7.9073 7.29289L6.49309 8.70711Z" fill="black" mask="url(#path-2-inside-1_392_273)"/>
<mask id="path-4-inside-2_392_273" fill="white">
<path d="M12.5908 9.59099C12.1026 10.0791 11.3903 10.1583 10.9998 9.76777L12.7676 8C13.1581 8.39052 13.079 9.10283 12.5908 9.59099Z"/>
</mask>
<path d="M10.9998 9.76777L10.2927 10.4749L9.5856 9.76777L10.2927 9.06066L10.9998 9.76777ZM12.7676 8L12.0605 7.29289L12.7676 6.58579L13.4747 7.29289L12.7676 8ZM11.7069 9.06066C11.6489 9.00264 11.6037 9.01995 11.6483 9.015C11.6952 9.00979 11.7889 8.97866 11.8837 8.88388L13.2979 10.2981C12.5746 11.0214 11.2128 11.395 10.2927 10.4749L11.7069 9.06066ZM11.8837 8.88388C11.9785 8.78911 12.0096 8.69535 12.0148 8.64845C12.0198 8.60389 12.0024 8.64908 12.0605 8.70711L13.4747 7.29289C14.3948 8.21303 14.0212 9.57481 13.2979 10.2981L11.8837 8.88388ZM13.4747 8.70711L11.7069 10.4749L10.2927 9.06066L12.0605 7.29289L13.4747 8.70711Z" fill="black" mask="url(#path-4-inside-2_392_273)"/>
<path d="M8.5 11.5H10H11.5H13C13 11.9102 12.6708 12.2819 12.1372 12.5527C11.7685 12.7398 11.3021 12.8788 10.7795 12.9489C10.5309 12.9822 10.2696 13 10 13C9.73039 13 9.46909 12.9822 9.22054 12.9489C8.64996 12.8723 8.14653 12.7138 7.76389 12.5C7.28885 12.2346 7 11.8842 7 11.5H8.5Z" fill="#892525"/>
<path d="M11.5887 11.55H12.9482C12.9233 11.9026 12.636 12.2331 12.1557 12.4868L11.5887 11.55ZM11.5043 11.6036L12.0663 12.532C11.7338 12.6932 11.3241 12.8163 10.8665 12.8859L11.5043 11.6036ZM11.4193 11.55L10.7776 12.8401L10.0837 11.55H11.4193ZM10 11.6056L10.7008 12.9085C10.4762 12.9356 10.2417 12.95 10.0002 12.95C9.75862 12.95 9.52388 12.9356 9.29921 12.9085L10 11.6056ZM9.91633 11.55L9.22244 12.8401L8.58072 11.55H9.91633ZM8.49171 11.5956L9.13353 12.8859C8.63085 12.8095 8.18602 12.6685 7.83791 12.4835L8.49171 11.5956ZM8.40109 11.55L7.74978 12.4345C7.32584 12.1882 7.07493 11.8787 7.05176 11.55H8.40109Z" fill="#EAF2E5" stroke="black" stroke-width="0.1"/>
</g>
<defs>
<clipPath id="clip0_392_273">
<rect width="20" height="20" fill="white"/>
</clipPath>
</defs>
</svg>
